<?xml version="1.0" standalone="no"?>
<!DOCTYPE svg PUBLIC "-//W3C//DTD SVG 20010904//EN"
 "http://www.w3.org/TR/2001/REC-SVG-20010904/DTD/svg10.dtd">
<svg version="1.0" xmlns="http://www.w3.org/2000/svg"
 width="800.000000pt" height="577.000000pt" viewBox="0 0 800.000000 577.000000"
 preserveAspectRatio="xMidYMid meet">

<g transform="translate(0.000000,577.000000) scale(0.100000,-0.100000)"
fill="#600000" stroke="none">
<path d="M5915 4563 c-27 -1 -135 -7 -240 -13 -379 -22 -859 -81 -1300 -160
-171 -31 -169 -31 -95 -46 160 -34 292 -114 355 -217 9 -14 24 -12 145 24 216
64 597 150 653 148 12 0 -35 -12 -105 -25 -158 -30 -401 -91 -557 -140 l-119
-37 -4 -56 c-3 -31 -5 -127 -7 -213 l-2 -158 81 30 c44 16 80 26 80 22 0 -4
-37 -21 -83 -37 l-82 -30 -3 -89 c-3 -81 -1 -88 15 -82 17 6 17 5 1 -8 -16
-12 -27 -86 -13 -86 3 0 36 16 74 35 87 43 322 144 460 197 342 130 788 256
1203 338 l56 11 1 147 c1 81 4 168 7 195 14 101 -51 210 -143 241 -44 15 -211
19 -378 9z m68 -200 c-7 -2 -19 -2 -25 0 -7 3 -2 5 12 5 14 0 19 -2 13 -5z
m-95 -10 c-10 -2 -26 -2 -35 0 -10 3 -2 5 17 5 19 0 27 -2 18 -5z m-90 -10
c-10 -2 -28 -2 -40 0 -13 2 -5 4 17 4 22 1 32 -1 23 -4z m-90 -10 c-10 -2 -26
-2 -35 0 -10 3 -2 5 17 5 19 0 27 -2 18 -5z m-70 -10 c-10 -2 -26 -2 -35 0
-10 3 -2 5 17 5 19 0 27 -2 18 -5z m-75 -10 c-7 -2 -21 -2 -30 0 -10 3 -4 5
12 5 17 0 24 -2 18 -5z m-60 -10 c-7 -2 -21 -2 -30 0 -10 3 -4 5 12 5 17 0 24
-2 18 -5z m666 -77 c-2 -46 -6 -87 -9 -89 -3 -3 -22 -8 -42 -12 l-38 -7 0 65
c0 35 3 79 6 96 6 28 10 31 46 31 l40 0 -3 -84z m-219 -30 c0 -102 -2 -106
-62 -106 -27 0 -30 3 -24 23 3 12 6 54 6 94 0 78 -4 73 68 82 9 1 12 -24 12
-93z m-230 -40 c0 -52 -3 -97 -8 -100 -4 -2 -24 -7 -45 -11 l-37 -7 0 96 c0
91 1 97 23 106 12 5 32 9 45 9 21 1 22 -2 22 -93z m-230 -51 c0 -104 -1 -106
-69 -119 l-34 -6 7 76 c3 43 6 90 6 105 0 29 11 36 63 38 l27 1 0 -95z m-240
-60 l0 -104 -37 -10 c-21 -6 -41 -11 -45 -11 -5 0 -8 47 -8 105 l0 104 33 10
c59 17 57 19 57 -94z m-240 -75 l0 -109 -37 -10 c-21 -6 -44 -11 -50 -11 -14
0 -17 78 -7 167 7 52 7 52 48 62 22 5 42 9 44 10 1 1 2 -48 2 -109z m-7 -170
c183 61 466 144 472 138 2 -2 -78 -28 -178 -57 -233 -69 -459 -148 -469 -164
-4 -6 -7 71 -6 173 l2 185 3 -167 3 -166 173 58z m854 224 c-3 -3 -12 -4 -19
-1 -8 3 -5 6 6 6 11 1 17 -2 13 -5z m-50 -10 c-3 -3 -12 -4 -19 -1 -8 3 -5 6
6 6 11 1 17 -2 13 -5z m-40 -10 c-3 -3 -12 -4 -19 -1 -8 3 -5 6 6 6 11 1 17
-2 13 -5z m610 0 c-3 -3 -12 -4 -19 -1 -8 3 -5 6 6 6 11 1 17 -2 13 -5z m-70
-10 c-3 -3 -12 -4 -19 -1 -8 3 -5 6 6 6 11 1 17 -2 13 -5z m-630 -10 c-3 -3
-12 -4 -19 -1 -8 3 -5 6 6 6 11 1 17 -2 13 -5z m580 0 c-3 -3 -12 -4 -19 -1
-8 3 -5 6 6 6 11 1 17 -2 13 -5z m-620 -10 c-3 -3 -12 -4 -19 -1 -8 3 -5 6 6
6 11 1 17 -2 13 -5z m570 0 c-3 -3 -12 -4 -19 -1 -8 3 -5 6 6 6 11 1 17 -2 13
-5z m-610 -10 c-3 -3 -12 -4 -19 -1 -8 3 -5 6 6 6 11 1 17 -2 13 -5z m556 -1
c-7 -2 -19 -2 -25 0 -7 3 -2 5 12 5 14 0 19 -2 13 -5z m-596 -9 c-3 -3 -12 -4
-19 -1 -8 3 -5 6 6 6 11 1 17 -2 13 -5z m550 0 c-3 -3 -12 -4 -19 -1 -8 3 -5
6 6 6 11 1 17 -2 13 -5z m-590 -10 c-3 -3 -12 -4 -19 -1 -8 3 -5 6 6 6 11 1
17 -2 13 -5z m540 0 c-3 -3 -12 -4 -19 -1 -8 3 -5 6 6 6 11 1 17 -2 13 -5z
m-40 -10 c-3 -3 -12 -4 -19 -1 -8 3 -5 6 6 6 11 1 17 -2 13 -5z m-50 -10 c-3
-3 -12 -4 -19 -1 -8 3 -5 6 6 6 11 1 17 -2 13 -5z m-40 -10 c-3 -3 -12 -4 -19
-1 -8 3 -5 6 6 6 11 1 17 -2 13 -5z m-40 -10 c-3 -3 -12 -4 -19 -1 -8 3 -5 6
6 6 11 1 17 -2 13 -5z m-40 -10 c-3 -3 -12 -4 -19 -1 -8 3 -5 6 6 6 11 1 17
-2 13 -5z m-40 -10 c-3 -3 -12 -4 -19 -1 -8 3 -5 6 6 6 11 1 17 -2 13 -5z
m-52 -14 c-11 -5 -27 -9 -35 -9 -9 0 -8 4 5 9 11 5 27 9 35 9 9 0 8 -4 -5 -9z
m-58 -16 c-3 -3 -12 -4 -19 -1 -8 3 -5 6 6 6 11 1 17 -2 13 -5z m-67 -19 c-19
-7 -42 -13 -50 -13 -8 0 1 6 20 13 19 7 42 13 50 13 8 0 -1 -6 -20 -13z m-330
-104 c-146 -49 -311 -107 -368 -130 -56 -22 -105 -41 -107 -41 -11 0 -4 17 8
17 6 0 55 17 107 38 117 46 589 204 610 204 8 0 -104 -39 -250 -88z m-520
-191 c-19 -11 -39 -19 -45 -19 -5 0 6 8 25 19 19 11 40 19 45 19 6 0 -6 -8
-25 -19z"/>
<path d="M6326 4562 c5 -4 26 -21 47 -36 20 -15 48 -48 61 -74 l24 -47 168 9
c99 5 254 5 374 -1 l205 -9 -325 0 c-179 0 -348 -4 -376 -8 l-51 -7 -6 -202
c-3 -111 -5 -203 -3 -204 1 -1 78 9 172 22 93 13 228 29 299 35 217 19 260 30
100 25 -133 -5 -421 -28 -494 -41 l-34 -5 5 68 c6 85 35 152 80 187 75 57 257
83 641 93 141 3 255 8 252 11 -3 3 -59 8 -126 12 -67 4 -124 12 -128 18 -3 6
-80 15 -181 21 -292 19 -480 40 -537 62 -59 22 -2 44 147 56 l95 8 -100 6
c-149 10 -320 10 -309 1z"/>
<path d="M3925 4333 c-458 -95 -956 -217 -1300 -319 -376 -112 -880 -284 -900
-307 -5 -7 -37 -21 -70 -31 -125 -38 -218 -106 -259 -187 -36 -73 -34 -86 14
-100 22 -7 38 -14 36 -17 -3 -2 -19 1 -37 7 -18 6 -34 9 -37 7 -8 -9 -61 -701
-54 -708 24 -23 308 -96 480 -122 144 -23 452 -39 612 -31 200 9 531 36 556
45 21 8 21 14 24 187 1 98 5 198 9 223 7 41 4 -297 -3 -362 -1 -16 -1 -28 1
-28 2 0 47 39 101 86 53 47 110 95 125 106 l29 21 -4 -23 c-2 -13 -54 -68
-131 -139 l-127 -116 -4 -189 -3 -188 147 153 147 154 8 175 c4 96 7 184 7
194 -1 11 5 24 12 30 96 78 467 349 551 403 224 143 510 302 522 289 3 -2 -19
-17 -49 -32 -256 -129 -619 -374 -937 -633 l-91 -75 0 -75 c0 -42 -3 -118 -6
-170 l-6 -95 50 45 c27 24 121 109 208 188 190 172 337 294 360 297 21 3 21 3
-101 -97 -49 -40 -129 -109 -177 -152 -49 -44 -88 -77 -88 -74 0 2 -98 -95
-218 -217 -212 -216 -318 -331 -340 -371 -9 -17 -11 -17 -12 -3 0 14 -5 14
-42 -7 -104 -58 -320 -93 -633 -102 -470 -13 -833 61 -976 200 -22 20 -41 37
-44 37 -14 0 -3 -95 12 -114 17 -19 17 -20 1 -7 -22 17 -24 11 -32 -90 l-6
-77 78 -41 c42 -23 67 -39 55 -36 -33 9 -26 -29 12 -63 l30 -27 -25 30 c-23
28 -22 28 8 -2 18 -19 30 -37 28 -42 -3 -5 4 -17 17 -27 22 -19 22 -19 7 2 -8
11 -3 6 13 -10 15 -17 25 -36 22 -43 -2 -7 0 -13 5 -13 6 0 10 -56 10 -139 0
-102 3 -141 13 -149 7 -6 69 -18 138 -27 157 -19 723 -75 766 -75 31 0 33 3
48 55 9 30 21 58 27 61 7 4 7 0 0 -12 -5 -11 -12 -35 -15 -54 -6 -34 -4 -32
79 55 161 169 384 429 384 447 0 4 -25 -3 -55 -17 -30 -13 -55 -19 -55 -13 0
6 -7 7 -17 3 -54 -23 -263 -66 -358 -74 -204 -18 -290 -21 -275 -12 8 4 76 11
150 15 74 4 153 10 177 13 l43 6 0 51 c0 29 -6 60 -13 71 -13 17 -20 17 -93 6
-217 -33 -509 -23 -720 24 -60 14 -114 25 -121 25 -12 0 -33 -59 -33 -95 0
-17 14 -23 108 -43 59 -13 112 -28 117 -34 7 -7 4 -8 -10 -4 -11 3 -81 19
-155 36 -74 16 -157 39 -185 50 -61 23 -47 26 19 4 26 -9 49 -14 52 -11 8 8 8
113 0 126 -4 6 -35 25 -69 42 -35 17 -74 39 -87 50 -14 10 10 1 53 -20 227
-113 558 -167 878 -143 233 18 439 61 601 127 75 30 73 30 75 3 2 -16 0 -19
-6 -9 -7 10 -27 6 -102 -22 -52 -19 -121 -43 -154 -52 -75 -21 -93 -38 -101
-97 -11 -80 -10 -81 113 -48 59 16 135 37 168 47 l60 19 12 69 c11 66 11 67 9
17 -2 -29 1 -51 5 -50 3 2 57 66 119 143 447 555 929 991 1458 1319 38 24 42
30 42 67 0 37 -2 40 -22 34 -13 -4 -34 -14 -48 -24 -41 -28 -50 -33 -50 -24 0
5 27 23 60 41 l60 33 0 90 c0 49 -2 89 -5 89 -2 0 -44 -18 -92 -40 -48 -22
-92 -39 -97 -36 -6 2 0 8 14 14 14 5 59 26 101 45 91 41 89 37 89 232 0 97 -3
135 -12 138 -10 4 -10 6 0 6 8 1 12 20 12 63 l0 62 -57 56 c-142 138 -400 201
-628 153z m-465 -377 c-339 -114 -669 -232 -748 -267 -25 -11 -42 -24 -40 -31
2 -7 50 -35 106 -63 56 -27 123 -68 148 -89 51 -43 94 -122 94 -173 0 -33 21
-46 35 -22 4 6 14 8 22 5 8 -3 11 -2 8 4 -5 8 199 152 245 173 8 4 29 16 45
27 54 35 85 51 85 43 0 -5 -9 -13 -19 -18 -11 -6 -45 -25 -75 -43 l-56 -33 -1
-137 c-1 -75 -5 -175 -9 -222 -7 -74 -8 -64 -6 73 0 86 -3 157 -8 157 -5 0
-31 -16 -58 -35 -27 -20 -54 -33 -60 -29 -7 4 -8 3 -4 -4 8 -13 -28 -35 -39
-24 -5 4 -5 2 -1 -5 8 -14 -27 -36 -39 -25 -5 4 -5 2 -2 -4 4 -7 -3 -19 -16
-27 -12 -8 -32 -25 -44 -36 l-23 -22 0 58 0 58 -282 -1 -283 -1 275 6 c151 3
280 9 286 13 7 5 10 23 7 45 -19 154 -192 281 -502 368 -47 14 -66 22 -41 17
98 -16 170 -7 280 36 210 80 1001 339 1040 341 8 0 -136 -51 -320 -113z m957
-13 c-2 -16 -4 -5 -4 22 0 28 2 40 4 28 2 -13 2 -35 0 -50z m0 -80 c-3 -10 -5
-2 -5 17 0 19 2 27 5 18 2 -10 2 -26 0 -35z m-377 -13 c-8 -5 -19 -10 -25 -10
-5 0 -3 5 5 10 8 5 20 10 25 10 6 0 3 -5 -5 -10z m330 -107 c0 -54 -3 -108 -6
-120 -5 -18 -62 -63 -80 -63 -6 0 -5 184 2 220 5 23 15 36 38 46 17 7 34 13
39 14 4 0 7 -44 7 -97z m-440 57 c-8 -5 -19 -10 -25 -10 -5 0 -3 5 5 10 8 5
20 10 25 10 6 0 3 -5 -5 -10z m290 -84 c0 -34 -3 -91 -7 -125 -6 -59 -8 -64
-44 -87 -21 -13 -41 -24 -44 -24 -7 0 -6 88 2 189 6 81 7 84 37 97 53 23 56
20 56 -50z m197 17 c-3 -10 -5 -2 -5 17 0 19 2 27 5 18 2 -10 2 -26 0 -35z
m-902 -87 c-104 -57 -233 -129 -285 -160 -52 -31 -103 -56 -113 -56 -11 0 -56
37 -100 83 -58 59 -101 94 -147 117 -59 29 -61 32 -27 25 22 -3 86 -22 144
-42 97 -33 113 -35 188 -31 87 6 266 61 430 132 44 19 85 35 90 35 6 1 -75
-46 -180 -103z m295 100 c0 -2 -7 -7 -16 -10 -8 -3 -12 -2 -9 4 6 10 25 14 25
6z m-58 -31 c-26 -19 -92 -47 -92 -40 0 6 92 54 105 55 5 0 0 -7 -13 -15z
m-1425 -1 c-3 -3 -12 -4 -19 -1 -8 3 -5 6 6 6 11 1 17 -2 13 -5z m66 -11 c-7
-2 -19 -2 -25 0 -7 3 -2 5 12 5 14 0 19 -2 13 -5z m1647 -126 l0 -133 -47 -32
-48 -31 -3 127 c-1 70 0 136 2 148 5 18 57 49 89 53 4 1 7 -59 7 -132z m-1844
93 c158 -13 220 -30 274 -75 49 -41 42 -44 -31 -11 -69 30 -168 52 -344 75
-164 22 -110 28 101 11z m1429 -19 c-17 -15 -147 -82 -152 -78 -5 5 137 86
152 87 5 0 5 -3 0 -9z m-975 -80 c147 -63 240 -138 240 -193 0 -64 -161 -96
-400 -79 -58 4 -86 9 -63 9 130 5 257 35 296 69 49 45 -5 126 -118 178 -38 17
-76 39 -84 49 -13 16 -12 17 15 10 16 -4 67 -23 114 -43z m1210 -4 c0 -30 -3
-95 -7 -146 l-6 -91 -49 -35 -48 -35 0 148 c0 81 4 152 8 158 7 11 81 53 95
54 4 0 7 -24 7 -53z m-2333 -27 c-10 -25 -8 -34 9 -57 30 -41 91 -81 165 -109
l64 -24 -50 6 c-132 16 -305 61 -305 80 0 19 48 79 83 105 22 16 41 29 43 29
1 0 -3 -13 -9 -30z m574 3 c76 -45 76 -168 -1 -208 -33 -17 -90 -20 -90 -4 0
5 -4 7 -10 4 -13 -8 -57 22 -64 43 -5 13 -3 13 9 -2 13 -17 15 -17 15 -4 0 9
-5 20 -11 23 -6 4 -8 30 -6 63 3 43 9 60 27 74 13 10 29 17 37 14 7 -3 13 -1
13 4 0 16 49 11 81 -7z m1569 -186 l0 -152 -55 -43 -55 -43 0 165 0 166 53 30
c28 16 53 30 55 30 1 0 2 -69 2 -153z m784 16 c-17 -16 -161 -110 -209 -137
-11 -6 -22 -14 -25 -17 -16 -19 -153 -110 -162 -107 -12 4 170 134 183 131 5
-2 9 1 9 6 0 5 34 30 75 56 41 25 75 51 75 56 0 6 4 7 10 4 5 -3 20 1 32 9 30
21 36 20 12 -1z m-999 -290 c-4 -22 -22 -45 -61 -78 -30 -26 -56 -46 -58 -44
-1 2 0 82 3 178 l6 175 55 33 55 33 3 -133 c2 -72 0 -146 -3 -164z m-1939 271
c10 -8 13 -12 6 -9 -8 4 -26 11 -40 15 -22 7 -23 8 -6 9 11 1 29 -6 40 -15z
m75 -14 c10 0 19 -4 19 -9 0 -10 -58 3 -69 15 -3 4 2 4 12 1 10 -4 27 -7 38
-7z m180 -34 c79 -14 214 -30 299 -36 269 -21 335 -30 180 -24 -212 8 -551 49
-614 74 -32 13 -21 12 135 -14z m-190 -86 c63 -16 164 -35 224 -41 61 -6 121
-15 135 -19 l25 -7 -3 -249 c-1 -137 -5 -260 -8 -273 -5 -24 -6 -24 -102 -17
-171 13 -398 66 -451 105 l-22 17 11 224 c14 294 14 290 49 290 16 0 80 -13
142 -30z m1075 -100 c137 0 165 -3 179 -16 14 -14 16 -45 13 -246 -3 -208 -5
-231 -21 -243 -10 -7 -57 -19 -105 -26 -143 -22 -561 -14 -601 11 -17 10 -16
482 1 513 10 19 18 20 191 14 99 -4 253 -7 343 -7z m1389 -29 c-9 -8 -36 -10
-30 -2 2 4 11 8 20 8 8 0 13 -3 10 -6z m-41 -33 c-3 -5 -9 -6 -14 -3 -4 3 -15
-6 -23 -18 -8 -13 -22 -24 -31 -24 -12 0 -13 3 -4 14 6 7 13 11 16 8 3 -3 11
3 18 13 12 18 49 27 38 10z m-2673 -995 c13 -16 12 -17 -3 -4 -10 7 -18 15
-18 17 0 8 8 3 21 -13z m1646 -25 c-3 -8 -6 -5 -6 6 -1 11 2 17 5 13 3 -3 4
-12 1 -19z m-887 -247 c46 -13 33 -91 -15 -91 -15 0 -31 -10 -41 -26 -22 -32
-63 -30 -81 6 -6 13 -21 28 -32 32 -17 6 -21 16 -21 48 l0 40 83 -1 c45 -1 93
-4 107 -8z m-249 -78 c13 -16 12 -17 -3 -4 -10 7 -18 15 -18 17 0 8 8 3 21
-13z m-223 -170 c-3 -133 -5 -158 -18 -158 -13 0 -15 25 -18 158 -2 153 -2
157 18 157 20 0 20 -4 18 -157z m103 -9 c-2 -82 -7 -153 -11 -158 -22 -23 -30
12 -30 134 0 130 10 185 33 177 9 -3 11 -40 8 -153z m449 153 c0 -2 -10 -12
-22 -23 l-23 -19 19 23 c18 21 26 27 26 19z m-345 -179 c-4 -73 -11 -137 -15
-142 -5 -5 -16 -6 -24 -3 -14 5 -15 19 -11 79 15 198 15 198 37 198 19 0 20
-4 13 -132z m202 117 c33 0 56 -3 50 -7 -21 -13 -121 -8 -147 7 l-25 15 30 -7
c17 -5 58 -8 92 -8z m329 2 c3 -8 -8 -81 -24 -163 -25 -136 -30 -149 -50 -152
-17 -3 -22 2 -22 19 0 26 50 290 57 301 7 13 33 9 39 -5z m108 4 c5 -8 -42
-249 -60 -313 -5 -18 -39 -25 -47 -10 -6 9 49 277 63 310 10 22 34 30 44 13z
m-218 -15 c5 -14 -32 -272 -42 -288 -7 -11 -32 -10 -39 2 -5 8 29 252 40 288
6 17 34 15 41 -2z m344 -10 c0 -2 -8 -10 -17 -17 -16 -13 -17 -12 -4 4 13 16
21 21 21 13z m-450 -40 c-1 -40 -32 -222 -39 -229 -17 -17 -44 1 -38 26 3 12
11 63 18 112 6 50 16 95 21 102 11 14 38 6 38 -11z m-218 -72 c-3 -116 -10
-146 -30 -142 -15 3 -17 15 -13 93 3 97 14 139 34 132 8 -3 11 -27 9 -83z
m103 -21 c-8 -102 -18 -133 -41 -133 -15 0 -16 10 -10 88 9 116 14 132 38 132
19 0 20 -4 13 -87z m517 29 c-5 -15 -15 -46 -22 -70 -7 -23 -15 -40 -17 -38
-2 2 6 39 18 81 13 43 25 73 27 66 2 -7 0 -24 -6 -39z"/>
<path d="M1959 3513 c-13 -16 -12 -17 4 -4 16 13 21 21 13 21 -2 0 -10 -8 -17
-17z"/>
<path d="M1437 3153 c-4 -37 -10 -145 -13 -239 l-7 -171 74 -27 c154 -57 432
-98 443 -65 3 8 10 115 16 238 8 166 7 227 -1 237 -6 8 -29 14 -51 14 -78 0
-311 41 -434 76 -20 5 -22 1 -27 -63z m213 -6 c74 -14 164 -29 200 -34 63 -8
65 -9 69 -38 7 -63 -11 -374 -23 -390 -10 -14 -18 -15 -54 -6 -50 14 -60 30
-71 119 -10 78 -21 101 -62 125 -24 13 -29 22 -29 56 0 51 -20 65 -113 81 -37
7 -74 19 -82 27 -8 8 -15 33 -15 55 0 37 2 40 23 35 12 -2 83 -16 157 -30z"/>
<path d="M2138 3094 c-5 -4 -8 -110 -8 -235 0 -227 0 -227 23 -233 48 -14 422
-19 525 -7 57 7 110 15 116 17 15 6 31 423 17 437 -5 5 -114 11 -242 12 -129
2 -277 7 -329 10 -52 4 -98 3 -102 -1z m372 -36 c107 0 202 -2 211 -5 9 -2 19
-15 22 -29 8 -43 -22 -54 -154 -54 -64 0 -130 -5 -148 -11 -26 -9 -31 -16 -31
-44 0 -38 -22 -65 -51 -65 -31 0 -79 -28 -81 -48 -1 -9 -2 -42 -2 -72 l-1 -55
-50 0 -50 0 3 190 c2 133 7 192 15 197 7 5 37 6 67 3 30 -4 143 -7 250 -7z"/>
<path d="M6890 4014 c-1146 -155 -1898 -416 -2580 -896 -560 -395 -1062 -932
-1615 -1728 -165 -236 -517 -772 -511 -777 2 -2 20 7 41 21 59 40 144 68 210
69 33 1 66 -1 74 -3 10 -4 46 53 119 185 577 1054 1153 1753 1861 2258 575
411 1341 687 2339 843 100 16 182 32 182 36 0 4 -3 8 -7 7 -5 -1 -55 -7 -113
-15z"/>
<path d="M3569 2713 c-13 -16 -12 -17 4 -4 16 13 21 21 13 21 -2 0 -10 -8 -17
-17z"/>
<path d="M1306 2607 c-3 -18 -10 -106 -17 -197 l-12 -164 39 -34 c94 -83 279
-146 519 -177 156 -20 500 -23 685 -6 205 20 409 68 439 105 7 8 14 88 18 195
6 174 5 181 -13 181 -10 0 -72 -7 -136 -15 -328 -41 -719 -40 -997 1 -126 19
-324 69 -438 112 l-82 30 -5 -31z m604 -293 c97 -11 201 -15 370 -13 129 2
245 0 256 -4 12 -4 28 -22 35 -39 16 -39 -2 -76 -46 -97 -41 -20 -509 -22
-645 -3 -156 22 -323 61 -350 80 -37 28 -40 93 -6 119 25 20 25 20 138 -3 62
-13 174 -31 248 -40z"/>
<path d="M1318 1728 c-13 -11 -184 -210 -361 -420 -48 -57 -48 -57 -28 -77 26
-26 34 -73 29 -166 -2 -41 -1 -75 2 -75 3 1 31 43 64 95 72 117 192 284 281
390 89 105 103 127 87 133 -7 2 -10 8 -6 13 3 5 0 9 -6 9 -6 0 -8 5 -5 10 3 6
1 10 -5 10 -6 0 -8 5 -5 10 3 6 1 10 -5 10 -6 0 -8 4 -5 10 3 5 0 21 -7 35
-12 21 -16 23 -30 13z"/>
</g>
</svg>
